<svg width="27" height="24" viewBox="0 0 27 24" fill="none" xmlns="http://www.w3.org/2000/svg">
	<g opacity="0.5">
		<path d="M16.7448 7L9.727 13.5C9.29749 13.8978 9.05619 14.4374 9.05619 15C9.05619 15.5626 9.29749 16.1022 9.727 16.5C10.1565 16.8978 10.7391 17.1213 11.3465 17.1213C11.9539 17.1213 12.5365 16.8978 12.966 16.5L19.9838 10C20.8428 9.20435 21.3254 8.12521 21.3254 7C21.3254 5.87478 20.8428 4.79564 19.9838 4C19.1247 3.20435 17.9596 2.75735 16.7448 2.75735C15.5299 2.75735 14.3648 3.20435 13.5058 4L6.48803 10.5C5.19948 11.6935 4.47559 13.3122 4.47559 15C4.47559 16.6878 5.19948 18.3065 6.48803 19.5C7.77657 20.6935 9.52421 21.364 11.3465 21.364C13.1688 21.364 14.9164 20.6935 16.205 19.5L23.2227 13" stroke="#333333" stroke-width="2" stroke-linecap="round" stroke-linejoin="round" />
	</g>
</svg>
